# xmcd CD database file
#
# Track frame offsets:
#	150
#	15738
#	29920
#	43640
#	57884
#	70671
#	86753
#	101364
#	109692
#	124491
#	138246
#	151968
#	165090
#	178829
#	193029
#	205800
#
# Disc length: 2916 seconds
#
# Revision: 2
# Processed by: cddbd v1.5.1PL2 Copyright (c) Steve Scherf et al.
# Submitted via: CDex 1.51
#
DISCID=d80b6210
DTITLE=Billy Holiday - Angel Of Harlem
DYEAR=2000
DGENRE=Jazz
TTITLE0=I can't give you anything but love
TTITLE1=That's life I guess
TTITLE2=Gettin' some fun out of life
TTITLE3=This is my last affair
TTITLE4=A sailboat in the moonlight
TTITLE5=Do nothin' till you hear from me
TTITLE6=Fine and mellow
TTITLE7=Lover come back to me
TTITLE8=Pennies from heaven
TTITLE9=They can't take that away from me
TTITLE10=My man
TTITLE11=You let me down
TTITLE12=Miss Brown to you
TTITLE13=Strange fruit
TTITLE14=Them there eyes
TTITLE15=That ole devil called love
EXTD=YEAR: 2000
EXTT0=
EXTT1=
EXTT2=
EXTT3=
EXTT4=
EXTT5=
EXTT6=
EXTT7=
EXTT8=
EXTT9=
EXTT10=
EXTT11=
EXTT12=
EXTT13=
EXTT14=
EXTT15=
PLAYORDER=
